HIERARCHY
ROOT root
{
	OFFSET 0.000000 0.000000 0.000000
	CHANNELS 6 Xposition Yposition Zposition Zrotation Yrotation Xrotation
	JOINT lhip
	{
		OFFSET 0.058581 -0.082280 -0.017664
		CHANNELS 3 Zrotation Yrotation Xrotation
		JOINT lknee
		{
			OFFSET 0.043451 -0.386469 0.008037
			CHANNELS 3 Zrotation Yrotation Xrotation
			JOINT lankle
			{
				OFFSET -0.014790 -0.426874 -0.037428
				CHANNELS 3 Zrotation Yrotation Xrotation
				JOINT ltoe
				{
					OFFSET 0.041054 -0.060286 0.122042
					CHANNELS 3 Zrotation Yrotation Xrotation
					End Site
					{
						OFFSET 0.000000 0.000000 0.000000
					}
				}
			}
		}
	}
	JOINT rhip
	{
		OFFSET -0.060310 -0.090513 -0.013543
		CHANNELS 3 Zrotation Yrotation Xrotation
		JOINT rknee
		{
			OFFSET -0.043257 -0.383688 -0.004843
			CHANNELS 3 Zrotation Yrotation Xrotation
			JOINT rankle
			{
				OFFSET 0.019056 -0.420046 -0.034562
				CHANNELS 3 Zrotation Yrotation Xrotation
				JOINT rtoe
				{
					OFFSET -0.034840 -0.062106 0.130323
					CHANNELS 3 Zrotation Yrotation Xrotation
					End Site
					{
						OFFSET 0.000000 0.000000 0.000000
					}
				}
			}
		}
	}
	JOINT lowerback
	{
		OFFSET 0.004439 0.124404 -0.038385
		CHANNELS 3 Zrotation Yrotation Xrotation
		JOINT upperback
		{
			OFFSET 0.004488 0.137956 0.026820
			CHANNELS 3 Zrotation Yrotation Xrotation
			JOINT chest
			{
				OFFSET -0.002265 0.056032 0.002855
				CHANNELS 3 Zrotation Yrotation Xrotation
				JOINT lowerneck
				{
					OFFSET -0.013390 0.211636 -0.033468
					CHANNELS 3 Zrotation Yrotation Xrotation
					JOINT upperneck
					{
						OFFSET 0.010113 0.088937 0.050410
						CHANNELS 3 Zrotation Yrotation Xrotation
						End Site
						{
							OFFSET 0.000000 0.000000 0.000000
						}
					}
				}
				JOINT lclavicle
				{
					OFFSET 0.071702 0.114000 -0.018898
					CHANNELS 3 Zrotation Yrotation Xrotation
					JOINT lshoulder
					{
						OFFSET 0.122921 0.045205 -0.019046
						CHANNELS 3 Zrotation Yrotation Xrotation
						JOINT lelbow
						{
							OFFSET 0.255332 -0.015649 -0.022946
							CHANNELS 3 Zrotation Yrotation Xrotation
							JOINT lwrist
							{
								OFFSET 0.265709 0.012698 -0.007375
								CHANNELS 3 Zrotation Yrotation Xrotation
								End Site
								{
									OFFSET 0.000000 0.000000 0.000000
								}
							}
						}
					}
				}
				JOINT rclavicle
				{
					OFFSET -0.082954 0.112472 -0.023707
					CHANNELS 3 Zrotation Yrotation Xrotation
					JOINT rshoulder
					{
						OFFSET -0.113228 0.046853 -0.008472
						CHANNELS 3 Zrotation Yrotation Xrotation
						JOINT relbow
						{
							OFFSET -0.260127 -0.014369 -0.031269
							CHANNELS 3 Zrotation Yrotation Xrotation
							JOINT rwrist
							{
								OFFSET -0.269108 0.006794 -0.006027
								CHANNELS 3 Zrotation Yrotation Xrotation
								End Site
								{
									OFFSET 0.000000 0.000000 0.000000
								}
							}
						}
					}
				}
			}
		}
	}
}
MOTION
Frames: 16
Frame Time: 0.033333
0.194560 0.795118 0.992398 -95.833507 -1.234311 77.855031 8.923856 -7.019536 -37.721391 -6.220731 13.175826 72.747461 3.363929 8.033886 -21.830672 0.000000 -0.000000 0.000000 1.689617 -2.303085 7.461364 2.780218 6.051187 11.348903 -0.307049 -3.663423 -11.787472 0.000000 -0.000000 0.000000 -2.267126 10.123947 14.785618 3.419146 -4.322646 5.795817 0.206707 -0.567787 5.763059 2.876367 2.767622 10.512982 4.045319 0.902464 18.665550 -22.635078 3.835855 4.829270 -65.864787 -2.801361 4.032205 11.695275 -24.024511 8.616876 -3.112001 -1.523407 -8.252471 20.931906 -2.565681 3.394462 62.454217 5.144835 8.520404 -19.401324 37.515093 -1.545249 6.984484 3.260845 -16.777255 
0.184792 0.795276 0.992142 -96.016931 -1.488539 77.933732 9.263439 -6.889113 -39.210428 -6.562145 12.943085 70.145958 3.346782 7.773980 -20.845000 0.000000 -0.000000 0.000000 1.385297 -2.763245 7.922319 2.575597 6.535318 11.665407 -0.492375 -3.512785 -12.498686 0.000000 -0.000000 0.000000 -2.356791 10.512997 14.833757 3.256952 -4.311637 5.645728 0.111878 -0.413353 5.679649 2.797612 2.793434 10.847965 4.434876 0.526850 18.850522 -22.661759 3.896657 5.369262 -65.845460 -2.310175 3.476181 12.042446 -23.498892 7.936038 -1.900385 -1.946984 -8.318174 20.919427 -2.402898 3.803554 62.296702 5.466607 8.164915 -18.988392 38.107554 -0.772094 6.779429 3.376732 -16.630052 
0.171432 0.795046 0.991434 -96.309060 -1.732129 77.854162 9.515322 -6.804043 -40.086279 -6.926228 12.510611 66.399871 3.171883 7.831183 -20.670961 0.000000 -0.000000 0.000000 1.058116 -2.831820 8.725392 2.528833 7.053514 12.182908 -0.575679 -3.528667 -13.787951 0.000000 -0.000000 0.000000 -2.472852 10.930907 14.608686 3.174451 -4.209256 6.220377 0.075564 -0.265844 5.823703 2.844353 3.060544 10.654626 4.178995 0.424035 18.907368 -22.779143 4.078163 5.196048 -65.834504 -1.909501 3.203945 12.386293 -22.735817 7.457463 -2.472463 -1.660198 -8.819717 20.862279 -2.024686 3.689649 62.226467 5.882730 8.393074 -18.892991 38.163528 -0.452574 7.304211 3.515273 -16.319233 
0.157726 0.794706 0.990592 -96.432464 -1.934540 77.716238 9.404386 -6.975913 -39.971324 -7.529636 11.673219 62.868535 2.999931 7.743862 -20.115346 0.000000 -0.000000 0.000000 0.791569 -2.909115 9.745388 2.362582 7.352227 12.454617 -0.641913 -3.783989 -14.932828 0.000000 -0.000000 0.000000 -2.642008 11.189961 14.509002 3.025494 -4.075343 6.603329 0.060610 0.025581 5.952239 3.051611 3.229589 10.659958 4.030263 0.125257 19.152669 -22.692740 4.410808 4.492138 -65.636340 -1.362714 3.293606 12.411643 -22.525567 7.111339 -3.011768 -1.769082 -8.797571 20.905333 -1.689006 3.352703 62.236700 5.772737 8.812044 -18.972996 38.329223 -0.417951 9.103507 3.126652 -15.756837 
0.143419 0.794252 0.989449 -96.602460 -1.945323 77.814771 9.227084 -7.000450 -39.553703 -7.862603 10.779924 59.877952 3.330108 7.680956 -19.489706 0.000000 -0.000000 0.000000 0.525665 -2.977595 10.870454 2.491704 7.802304 12.223370 -0.676569 -3.761884 -15.818724 0.000000 -0.000000 0.000000 -2.675667 11.369344 13.961010 2.905845 -3.965786 7.158808 -0.055970 0.191324 5.859158 3.102985 3.201534 11.242678 3.899679 -0.034079 19.176732 -22.814291 4.564991 4.449271 -65.165103 -0.941139 3.246959 12.517099 -23.006895 6.825396 -2.930710 -1.504799 -8.830601 21.252083 -1.315959 3.672384 61.951332 6.187183 8.812147 -18.593313 38.390688 -0.107116 8.910820 3.629258 -14.892641 
0.125588 0.793137 0.987446 -96.623311 -1.785841 78.435886 9.073062 -7.122318 -39.125491 -8.299708 9.923712 57.183605 3.680305 8.010763 -19.023769 0.000000 -0.000000 0.000000 0.049790 -3.592043 11.868635 2.708458 8.018107 11.676084 -0.777534 -3.356099 -16.554494 0.000000 -0.000000 0.000000 -2.744601 11.612728 13.099070 2.873733 -3.942061 7.246635 -0.147171 0.321788 5.864000 3.129882 3.161747 11.437351 3.922302 -0.413574 19.588048 -22.704402 5.130653 4.782035 -64.805710 -0.857616 3.092880 12.339744 -24.374093 7.136983 -2.020339 -1.680541 -8.729556 21.291935 -1.472222 3.815198 62.119194 6.490037 8.842338 -17.643023 38.767208 1.243804 9.190999 3.882940 -14.490304 
0.111562 0.791949 0.985846 -96.863472 -1.597213 79.115616 8.935013 -7.199908 -38.476979 -8.516238 9.227213 55.544240 3.686822 7.483372 -18.346079 0.000000 -0.000000 0.000000 -0.095707 -3.646615 12.344371 2.742397 7.953234 11.386379 -0.567646 -2.964788 -17.302048 0.000000 -0.000000 0.000000 -2.814615 11.803836 12.450294 2.876631 -3.613243 7.249979 -0.190341 0.554214 5.942517 3.344420 3.518106 11.303639 3.455506 -0.700844 19.508510 -22.554780 5.778759 3.879475 -64.556819 -0.774525 3.499756 12.031717 -25.086660 7.418107 -2.726738 -1.579956 -8.888599 21.460494 -1.848492 3.472471 62.293119 6.615513 9.399794 -17.495099 39.233552 1.543903 9.883719 3.774206 -14.686124 
0.097507 0.790309 0.983889 -97.042555 -1.360257 80.117371 8.811739 -7.443166 -38.028301 -8.931779 8.423754 54.342296 3.753996 7.488990 -18.029998 0.000000 -0.000000 0.000000 -0.058704 -3.501264 12.223046 2.827857 8.099412 11.551992 -0.441523 -3.184978 -18.023552 0.000000 -0.000000 0.000000 -3.038552 11.925527 11.583019 2.925645 -3.311843 7.273142 -0.228762 0.684322 5.791300 3.514850 3.759079 11.042281 3.607337 -0.841612 19.620631 -22.353596 5.973471 4.141082 -64.461854 -0.787735 3.685524 12.038885 -26.625269 7.348184 -3.063028 -1.547454 -9.605315 21.474785 -1.708268 3.640634 62.554970 6.551961 9.619016 -17.404825 39.751941 1.697584 10.784657 3.963047 -15.319746 
0.082937 0.787995 0.982644 -97.252243 -1.291971 80.975301 8.347402 -7.794476 -36.873920 -9.176373 7.695080 52.865561 4.119868 7.499833 -18.063873 0.000000 -0.000000 0.000000 -0.328685 -3.691382 12.210183 2.738221 8.206075 11.854926 -0.193125 -2.987841 -18.632988 0.000000 -0.000000 0.000000 -3.326787 12.218685 11.128676 2.831866 -3.057794 7.013833 -0.247144 0.814461 5.608378 3.579048 3.653159 10.936876 3.627878 -1.288470 19.743146 -22.156791 6.089555 4.579970 -64.285265 -1.048350 3.696390 11.935984 -28.137916 7.433176 -2.396574 -1.999226 -9.789484 21.540429 -1.713009 4.037436 62.768951 6.782902 9.561132 -17.054674 40.198097 2.246885 10.555262 4.065357 -15.320823 
0.067669 0.784758 0.981752 -97.594396 -1.350542 81.757407 7.377692 -7.813078 -35.282652 -8.653843 7.432841 51.555810 6.655348 9.762736 -21.277259 0.000000 -0.000000 0.000000 -0.722933 -3.595257 12.378397 2.642264 8.447126 11.936852 0.059031 -3.580777 -18.548027 0.000000 -0.000000 0.000000 -3.519539 12.427188 10.543351 2.474724 -2.507939 6.970210 -0.367408 1.060385 6.275873 3.821243 3.881973 9.776669 3.236601 -1.185736 19.441289 -21.736088 6.142928 3.558133 -63.919534 -1.358066 4.486722 11.305562 -29.056338 8.123285 -1.772118 -2.101728 -10.243832 21.331753 -1.560068 3.189102 63.520097 6.485705 10.767797 -17.514099 40.154311 1.268432 9.580079 3.934777 -15.002215 
0.052453 0.781070 0.982276 -97.450932 -1.405636 82.688598 6.700444 -8.044754 -35.862431 -8.388652 7.784781 52.995217 7.298964 9.701958 -22.227238 0.000000 -0.000000 0.000000 -1.005942 -3.534514 12.293003 2.437222 8.500186 12.335767 0.386620 -3.621350 -17.877969 0.000000 -0.000000 0.000000 -3.728803 12.544256 10.487671 2.109750 -2.377946 6.311588 -0.616720 1.155902 6.225959 3.639809 3.519187 9.395791 3.637972 -1.139120 19.475559 -21.550692 5.916800 3.576170 -63.470688 -1.788395 4.530649 11.198992 -29.654460 8.150150 -1.522284 -2.442239 -9.912983 21.324661 -1.450171 3.205933 63.906017 6.075096 11.005741 -17.473846 40.278508 1.356230 9.771371 4.173639 -14.759260 
0.037733 0.776809 0.985308 -97.290788 -1.650812 83.563877 6.404995 -8.747646 -35.765917 -8.416118 8.504917 52.779221 6.905002 10.163596 -22.617618 0.000000 -0.000000 0.000000 -1.632473 -3.302615 11.930684 2.278146 8.206223 12.885594 1.751715 -3.480065 -15.867749 0.000000 -0.000000 0.000000 -4.299618 12.954806 10.451037 1.850017 -2.215566 6.212562 -0.738266 1.385049 5.783744 3.659656 2.888547 9.154202 4.081022 -1.542230 19.189150 -21.439909 5.326605 3.251606 -63.246188 -2.426833 5.052588 11.759348 -29.695438 7.226219 -1.736503 -2.551002 -9.446723 21.188309 -1.474166 3.096384 64.266914 5.435597 11.201524 -17.837529 39.917390 1.194874 13.294154 4.054996 -15.330541 
0.020104 0.772733 0.991694 -97.166731 -1.490682 83.856329 5.138192 -8.672574 -33.695908 -8.565015 7.259604 51.516294 7.698267 11.386760 -24.169767 0.000000 -0.000000 0.000000 -1.836628 -3.289277 12.349425 1.964282 8.170350 13.346313 2.996798 -3.252212 -12.773336 0.000000 -0.000000 0.000000 -4.563127 13.307431 10.231848 1.683140 -1.853072 6.348759 -0.760651 1.377857 6.021948 3.857149 2.528208 8.764475 4.537716 -1.807934 18.715130 -21.419003 4.598821 3.494453 -63.196655 -3.473477 5.151416 12.335048 -29.769030 6.248276 -0.469895 -2.488144 -9.946675 21.204418 -1.342750 3.258505 64.239312 4.926164 11.172949 -17.947139 40.097973 0.481268 10.488742 4.155927 -15.233802 
0.002711 0.768292 1.000965 -96.695727 -1.184909 84.471120 4.519108 -9.413730 -31.905624 -8.614186 6.622889 49.653210 7.780870 12.074688 -24.601039 0.000000 -0.000000 0.000000 -1.863901 -3.087705 12.226375 1.694901 7.601934 13.924813 4.775948 -2.946886 -8.041249 0.000000 -0.000000 0.000000 -4.945077 13.165665 9.869937 1.541119 -1.874485 6.094855 -0.728346 1.330314 6.073035 4.027699 1.893632 9.141269 4.879603 -1.856959 18.670282 -21.373503 4.612569 3.440135 -63.273869 -4.134373 5.506902 12.744552 -30.044128 4.794768 0.528265 -2.719501 -10.197400 20.930076 -1.591005 3.072886 64.456707 4.238011 11.727114 -17.888594 39.259063 0.286813 8.456549 3.783660 -14.309294 
-0.014399 0.763091 1.013059 -95.833462 -0.892039 85.209640 3.399400 -10.089142 -29.635172 -8.149981 5.462005 46.623444 8.576085 12.817763 -24.568277 0.000000 -0.000000 0.000000 -1.886154 -2.855136 10.972324 1.545587 6.582179 15.728542 7.049622 -2.669421 -2.195889 0.000000 -0.000000 0.000000 -5.528694 12.568643 9.376974 1.545369 -2.074505 5.722308 -0.577438 1.057795 6.233543 4.252556 1.692017 9.253109 5.078459 -1.593614 18.528062 -21.565160 4.673005 3.498012 -63.302302 -4.769724 6.090023 13.088913 -30.050189 3.247842 1.343079 -2.859560 -10.282569 20.905811 -2.081748 2.834852 64.387700 3.488076 12.385667 -18.083564 38.124292 -0.851910 7.004550 3.231395 -13.955780 
-0.030140 0.758168 1.026947 -95.254417 -0.454756 85.877976 2.279431 -9.984674 -27.086601 -7.962335 3.577147 43.211186 8.664147 12.937975 -24.225661 0.000000 -0.000000 0.000000 -1.749875 -2.792705 7.893445 1.398444 5.289186 20.387740 9.466985 -2.319554 3.547902 0.000000 -0.000000 0.000000 -5.840494 11.832925 9.142573 1.561291 -1.848117 5.375501 -0.492332 0.712550 6.377480 4.506187 1.198493 9.235714 5.333753 -1.536206 18.328058 -21.559329 4.831784 3.352367 -63.365012 -5.396481 6.544197 12.880917 -30.148108 2.927730 1.101680 -3.306089 -9.751250 20.711488 -2.993494 2.428985 64.331454 2.647573 12.348783 -17.651376 37.011041 -1.324224 7.616561 3.436991 -13.661547 
